<?xml version="1.0"?>
<svg xmlns:rdf="http://www.w3.org/1999/02/22-rdf-syntax-ns#" xmlns="http://www.w3.org/2000/svg" xmlns:cc="http://creativecommons.org/ns#" xmlns:xlink="http://www.w3.org/1999/xlink" xmlns:dc="http://purl.org/dc/elements/1.1/" xmlns:svg="http://www.w3.org/2000/svg" id="svg3766" viewBox="0 0 299.28 199.96" version="1.1">
  <defs id="defs3768">
    <linearGradient id="linearGradient4601" y2="306.25" gradientUnits="userSpaceOnUse" x2="346.39" gradientTransform="matrix(1 0 0 .97480 0 8.9973)" y1="306.25" x1="145.51">
      <stop id="stop4582" offset="0"/>
      <stop id="stop4586" stop-color="#fff" stop-opacity=".2028" offset=".21087"/>
      <stop id="stop4584" stop-opacity="0" offset="1"/>
    </linearGradient>
  </defs>
  <g id="layer1" transform="translate(-144.88 -178.01)">
    <g id="g4610">
      <path id="path3776-8-7" d="m144.88 228.34v100h0.0312c0.59548 27.444 67.321 49.625 149.59 49.625 82.273 0 149.03-22.181 149.62-49.625h0.0312v-100h-299.28z" style="color:#000000" fill="#333"/>
      <path id="path3776-8" d="m363.65 236.16a110.11 42.426 0 1 1 -220.21 0 110.11 42.426 0 1 1 220.21 0z" style="color:#000000" transform="matrix(1.359 0 0 1.1785 -50.064 -50.305)"/>
      <path id="path3776-8-3" style="color:#000000" d="m363.65 236.16a110.11 42.426 0 1 1 -220.21 0 110.11 42.426 0 1 1 220.21 0z" transform="matrix(1.063 0 0 .85411 25 26.306)" stroke="#393939" stroke-width="5"/>
      <path id="path3776-8-3-1" style="color:#000000" d="m363.65 236.16a110.11 42.426 0 1 1 -220.21 0 110.11 42.426 0 1 1 220.21 0z" transform="matrix(1.0301 0 0 .81996 33.34 35.819)" stroke="#272d39" stroke-width="5.1839"/>
      <path id="path4570" d="m272.26 376.64c-65.93-3.82-114.87-19.82-125.05-40.87l-1.706-3.5307 0.0388-47.664c0.0254-31.133 0.27956-47.077 0.73293-45.972 2.6679 6.5016 12.483 14.608 24.728 20.423 53.133 25.233 163.69 28.467 230.06 6.7295 21.084-6.9052 37.115-17.229 41.486-26.715 1.2729-2.763 1.3028-1.597 1.1659 45.535l-0.14053 48.37-1.925 3.5547c-9.9196 18.318-49.199 32.822-104.2 38.477-13.645 1.4029-52.537 2.394-65.195 1.6614z" style="color:#000000" fill="url(#linearGradient4601)"/>
    </g>
  </g>
  <metadata>
    <rdf:RDF>
      <cc:Work>
        <dc:format>image/svg+xml</dc:format>
        <dc:type rdf:resource="http://purl.org/dc/dcmitype/StillImage"/>
        <cc:license rdf:resource="http://creativecommons.org/licenses/publicdomain/"/>
        <dc:publisher>
          <cc:Agent rdf:about="http://openclipart.org/">
            <dc:title>Openclipart</dc:title>
          </cc:Agent>
        </dc:publisher>
        <dc:title>Hockey Puck</dc:title>
        <dc:date>2010-03-30T04:28:04</dc:date>
        <dc:description>A hockey puck, drawn in Inkscape.</dc:description>
        <dc:source>http://openclipart.org/detail/35551/hockey-puck-by-j_alves</dc:source>
        <dc:creator>
          <cc:Agent>
            <dc:title>J_Alves</dc:title>
          </cc:Agent>
        </dc:creator>
        <dc:subject>
          <rdf:Bag>
            <rdf:li>clip art</rdf:li>
            <rdf:li>clipart</rdf:li>
            <rdf:li>hockey</rdf:li>
            <rdf:li>ice hockey</rdf:li>
            <rdf:li>puck</rdf:li>
            <rdf:li>sport</rdf:li>
            <rdf:li>sports2010</rdf:li>
          </rdf:Bag>
        </dc:subject>
      </cc:Work>
      <cc:License rdf:about="http://creativecommons.org/licenses/publicdomain/">
        <cc:permits rdf:resource="http://creativecommons.org/ns#Reproduction"/>
        <cc:permits rdf:resource="http://creativecommons.org/ns#Distribution"/>
        <cc:permits rdf:resource="http://creativecommons.org/ns#DerivativeWorks"/>
      </cc:License>
    </rdf:RDF>
  </metadata>
</svg>
